<svg width="60" height="60" viewBox="0 0 60 60" fill="none" xmlns="http://www.w3.org/2000/svg">
<path d="M32.12 54.1798C29.04 54.1798 26.16 53.6198 23.48 52.4998C20.84 51.3798 18.52 49.8398 16.52 47.8798C14.52 45.8798 12.96 43.5598 11.84 40.9198C10.76 38.2398 10.22 35.3798 10.22 32.3398C10.22 29.2998 10.76 26.4798 11.84 23.8798C12.96 21.2398 14.5 18.9398 16.46 16.9798C18.46 14.9798 20.78 13.4398 23.42 12.3598C26.06 11.2398 28.92 10.6798 32 10.6798C35.08 10.6798 37.94 11.2398 40.58 12.3598C43.22 13.4398 45.54 14.9798 47.54 16.9798C49.54 18.9398 51.08 21.2398 52.16 23.8798C53.28 26.5198 53.84 29.3598 53.84 32.3998C53.84 35.4398 53.28 38.2798 52.16 40.9198C51.08 43.5598 49.54 45.8798 47.54 47.8798C45.58 49.8398 43.28 51.3798 40.64 52.4998C38 53.6198 35.16 54.1798 32.12 54.1798ZM32 46.5598C34.68 46.5598 37.02 45.9598 39.02 44.7598C41.06 43.5598 42.64 41.8998 43.76 39.7798C44.92 37.6598 45.5 35.1798 45.5 32.3398C45.5 30.2598 45.16 28.3598 44.48 26.6398C43.84 24.9198 42.92 23.4398 41.72 22.1998C40.52 20.9198 39.1 19.9398 37.46 19.2598C35.82 18.5798 34 18.2398 32 18.2398C29.36 18.2398 27.02 18.8398 24.98 20.0398C22.98 21.1998 21.4 22.8398 20.24 24.9598C19.12 27.0798 18.56 29.5398 18.56 32.3398C18.56 34.4598 18.88 36.3998 19.52 38.1598C20.2 39.9198 21.12 41.4198 22.28 42.6598C23.48 43.8998 24.9 44.8598 26.54 45.5398C28.22 46.2198 30.04 46.5598 32 46.5598ZM51.14 56.6398L31.82 37.3198L36.74 32.3398L56.12 51.7198L51.14 56.6398Z" fill="#FEFEFE"/>
<circle cx="7.12228" cy="22.5232" r="3" transform="rotate(-31.3197 7.12228 22.5232)" fill="#8ECAE6"/>
<circle cx="11.1223" cy="15.5232" r="3" transform="rotate(-31.3197 11.1223 15.5232)" fill="#219EBC"/>
<circle cx="17.1223" cy="10.5232" r="3" transform="rotate(-31.3197 17.1223 10.5232)" fill="#FFB703"/>
<circle cx="25.1223" cy="7.12228" r="3" transform="rotate(-31.3197 25.1223 7.12228)" fill="#FB8500"/>
</svg>
