<svg width="240" height="60" viewBox="0 0 240 60" fill="none" xmlns="http://www.w3.org/2000/svg">
<path d="M25.08 45.44C23.0267 45.44 21.1067 45.0667 19.32 44.32C17.56 43.5733 16.0133 42.5467 14.68 41.24C13.3467 39.9067 12.3067 38.36 11.56 36.6C10.84 34.8133 10.48 32.9067 10.48 30.88C10.48 28.8533 10.84 26.9733 11.56 25.24C12.3067 23.48 13.3333 21.9467 14.64 20.64C15.9733 19.3067 17.52 18.28 19.28 17.56C21.04 16.8133 22.9467 16.44 25 16.44C27.0533 16.44 28.96 16.8133 30.72 17.56C32.48 18.28 34.0267 19.3067 35.36 20.64C36.6933 21.9467 37.72 23.48 38.44 25.24C39.1867 27 39.56 28.8933 39.56 30.92C39.56 32.9467 39.1867 34.84 38.44 36.6C37.72 38.36 36.6933 39.9067 35.36 41.24C34.0533 42.5467 32.52 43.5733 30.76 44.32C29 45.0667 27.1067 45.44 25.08 45.44ZM25 40.36C26.7867 40.36 28.3467 39.96 29.68 39.16C31.04 38.36 32.0933 37.2533 32.84 35.84C33.6133 34.4267 34 32.7733 34 30.88C34 29.4933 33.7733 28.2267 33.32 27.08C32.8933 25.9333 32.28 24.9467 31.48 24.12C30.68 23.2667 29.7333 22.6133 28.64 22.16C27.5467 21.7067 26.3333 21.48 25 21.48C23.24 21.48 21.68 21.88 20.32 22.68C18.9867 23.4533 17.9333 24.5467 17.16 25.96C16.4133 27.3733 16.04 29.0133 16.04 30.88C16.04 32.2933 16.2533 33.5867 16.68 34.76C17.1333 35.9333 17.7467 36.9333 18.52 37.76C19.32 38.5867 20.2667 39.2267 21.36 39.68C22.48 40.1333 23.6933 40.36 25 40.36ZM37.76 47.08L24.88 34.2L28.16 30.88L41.08 43.8L37.76 47.08Z" fill="#FEFEFE"/>
<path d="M52.3725 45.4C50.6658 45.4 49.1458 45.04 47.8125 44.32C46.5058 43.6 45.4792 42.6 44.7325 41.32C43.9858 40.04 43.6125 38.56 43.6125 36.88V25.68H48.8925V36.76C48.8925 37.56 49.0258 38.2533 49.2925 38.84C49.5592 39.4 49.9592 39.8267 50.4925 40.12C51.0258 40.4133 51.6525 40.56 52.3725 40.56C53.4658 40.56 54.3192 40.2267 54.9325 39.56C55.5458 38.8933 55.8525 37.96 55.8525 36.76V25.68H61.0925V36.88C61.0925 38.5867 60.7192 40.08 59.9725 41.36C59.2525 42.64 58.2258 43.64 56.8925 44.36C55.5858 45.0533 54.0792 45.4 52.3725 45.4Z" fill="#FEFEFE"/>
<path d="M65.2653 45V25.68H70.5453V45H65.2653ZM67.9053 22.56C67.052 22.56 66.3453 22.28 65.7853 21.72C65.2253 21.1333 64.9453 20.4133 64.9453 19.56C64.9453 18.7333 65.2253 18.0267 65.7853 17.44C66.3453 16.8533 67.052 16.56 67.9053 16.56C68.7853 16.56 69.492 16.8533 70.0253 17.44C70.5853 18.0267 70.8653 18.7333 70.8653 19.56C70.8653 20.4133 70.5853 21.1333 70.0253 21.72C69.492 22.28 68.7853 22.56 67.9053 22.56Z" fill="#FEFEFE"/>
<path d="M84.3072 45.4C82.3338 45.4 80.5605 44.96 78.9872 44.08C77.4138 43.2 76.1738 42 75.2672 40.48C74.3605 38.96 73.9072 37.2533 73.9072 35.36C73.9072 33.44 74.3605 31.72 75.2672 30.2C76.1738 28.68 77.4138 27.48 78.9872 26.6C80.5872 25.6933 82.3605 25.24 84.3072 25.24C85.8272 25.24 87.2272 25.52 88.5072 26.08C89.7872 26.64 90.8939 27.44 91.8272 28.48L88.4672 31.88C87.9605 31.32 87.3472 30.8933 86.6272 30.6C85.9338 30.3067 85.1605 30.16 84.3072 30.16C83.3472 30.16 82.4805 30.3867 81.7072 30.84C80.9605 31.2667 80.3605 31.8667 79.9072 32.64C79.4805 33.3867 79.2672 34.28 79.2672 35.32C79.2672 36.3333 79.4805 37.24 79.9072 38.04C80.3605 38.8133 80.9605 39.4267 81.7072 39.88C82.4805 40.3067 83.3472 40.52 84.3072 40.52C85.1872 40.52 85.9738 40.3733 86.6672 40.08C87.3872 39.76 88.0005 39.3067 88.5072 38.72L91.9072 42.12C90.9205 43.1867 89.7872 44 88.5072 44.56C87.2272 45.12 85.8272 45.4 84.3072 45.4Z" fill="#FEFEFE"/>
<path d="M107.195 45L99.7147 35.04L107.155 25.68H113.195L104.475 36.24L104.675 33.68L113.595 45H107.195ZM94.8747 45V16.08H100.115V45H94.8747Z" fill="#FEFEFE"/>
<path d="M125.215 45V17.48H128.135V45H125.215ZM127.135 45V42.32H142.295V45H127.135Z" fill="#FEFEFE"/>
<path d="M153.867 45.4C152.081 45.4 150.481 44.9733 149.067 44.12C147.654 43.24 146.534 42.0667 145.707 40.6C144.907 39.1333 144.507 37.48 144.507 35.64C144.507 33.7733 144.907 32.1067 145.707 30.64C146.534 29.1467 147.654 27.9733 149.067 27.12C150.481 26.24 152.067 25.8 153.827 25.8C155.267 25.8 156.547 26.0933 157.667 26.68C158.814 27.24 159.734 28.04 160.427 29.08C161.147 30.0933 161.587 31.28 161.747 32.64V38.52C161.587 39.88 161.147 41.08 160.427 42.12C159.734 43.16 158.814 43.9733 157.667 44.56C156.547 45.12 155.281 45.4 153.867 45.4ZM154.307 42.72C156.254 42.72 157.814 42.0667 158.987 40.76C160.187 39.4533 160.787 37.7333 160.787 35.6C160.787 34.1867 160.507 32.9467 159.947 31.88C159.414 30.7867 158.654 29.9467 157.667 29.36C156.707 28.7467 155.574 28.44 154.267 28.44C152.934 28.44 151.747 28.7467 150.707 29.36C149.694 29.9733 148.881 30.8267 148.267 31.92C147.681 32.9867 147.387 34.2133 147.387 35.6C147.387 36.9867 147.681 38.2133 148.267 39.28C148.881 40.3467 149.707 41.1867 150.747 41.8C151.787 42.4133 152.974 42.72 154.307 42.72ZM160.627 45V39.96L161.187 35.32L160.627 30.8V26.2H163.427V45H160.627Z" fill="#FEFEFE"/>
<path d="M178.826 45.4C177.386 45.4 176.092 45.1067 174.946 44.52C173.799 43.9333 172.852 43.1333 172.106 42.12C171.386 41.08 170.946 39.88 170.786 38.52V32.64C170.946 31.2533 171.399 30.0533 172.146 29.04C172.892 28 173.839 27.2 174.986 26.64C176.159 26.08 177.439 25.8 178.826 25.8C180.559 25.8 182.119 26.24 183.506 27.12C184.892 27.9733 185.986 29.1467 186.786 30.64C187.612 32.1067 188.026 33.7733 188.026 35.64C188.026 37.48 187.626 39.1333 186.826 40.6C186.026 42.0667 184.919 43.24 183.506 44.12C182.119 44.9733 180.559 45.4 178.826 45.4ZM178.346 42.72C179.679 42.72 180.852 42.4267 181.866 41.84C182.879 41.2267 183.666 40.3867 184.226 39.32C184.812 38.2267 185.106 36.9867 185.106 35.6C185.106 34.1867 184.812 32.9467 184.226 31.88C183.666 30.8133 182.879 29.9733 181.866 29.36C180.852 28.7467 179.692 28.44 178.386 28.44C177.079 28.44 175.919 28.7467 174.906 29.36C173.919 29.9733 173.146 30.8133 172.586 31.88C172.026 32.9467 171.746 34.1867 171.746 35.6C171.746 36.9867 172.026 38.2267 172.586 39.32C173.146 40.3867 173.919 41.2267 174.906 41.84C175.892 42.4267 177.039 42.72 178.346 42.72ZM169.106 45V16.68H171.906V30.8L171.346 35.32L171.906 39.96V45H169.106Z" fill="#FEFEFE"/>
<path d="M198.264 45.4C197.251 45.4 196.277 45.2667 195.344 45C194.411 44.7067 193.557 44.3067 192.784 43.8C192.037 43.2933 191.384 42.6933 190.824 42L192.624 40.16C193.371 41.0667 194.211 41.7467 195.144 42.2C196.104 42.6267 197.171 42.84 198.344 42.84C199.597 42.84 200.571 42.6 201.264 42.12C201.984 41.64 202.344 40.9733 202.344 40.12C202.344 39.32 202.091 38.6933 201.584 38.24C201.077 37.7867 200.424 37.4267 199.624 37.16C198.851 36.8933 198.024 36.64 197.144 36.4C196.264 36.1333 195.424 35.8133 194.624 35.44C193.824 35.04 193.171 34.4933 192.664 33.8C192.184 33.1067 191.944 32.2 191.944 31.08C191.944 30.0133 192.197 29.0933 192.704 28.32C193.237 27.52 193.984 26.9067 194.944 26.48C195.931 26.0267 197.091 25.8 198.424 25.8C199.837 25.8 201.117 26.0533 202.264 26.56C203.411 27.0667 204.331 27.8133 205.024 28.8L203.224 30.6C202.664 29.88 201.957 29.3333 201.104 28.96C200.277 28.56 199.344 28.36 198.304 28.36C197.104 28.36 196.184 28.6 195.544 29.08C194.931 29.5333 194.624 30.1333 194.624 30.88C194.624 31.6 194.877 32.1733 195.384 32.6C195.891 33 196.531 33.3333 197.304 33.6C198.104 33.84 198.944 34.0933 199.824 34.36C200.704 34.6 201.544 34.9333 202.344 35.36C203.144 35.76 203.784 36.32 204.264 37.04C204.771 37.7333 205.024 38.68 205.024 39.88C205.024 41.56 204.411 42.9067 203.184 43.92C201.984 44.9067 200.344 45.4 198.264 45.4Z" fill="#FEFEFE"/>
<circle cx="6.43523" cy="25.4352" r="2.5" transform="rotate(-31.3197 6.43523 25.4352)" fill="#8ECAE6"/>
<circle cx="10.4352" cy="18.4352" r="2.5" transform="rotate(-31.3197 10.4352 18.4352)" fill="#219EBC"/>
<circle cx="16.1374" cy="13.6393" r="2.5" transform="rotate(-31.3197 16.1374 13.6393)" fill="#FFB703"/>
<circle cx="23.4352" cy="11.4352" r="2.5" transform="rotate(-31.3197 23.4352 11.4352)" fill="#FB8500"/>
</svg>
