<svg width="240" height="60" viewBox="0 0 240 60" fill="none" xmlns="http://www.w3.org/2000/svg">
<path d="M38.08 45.44C36.0267 45.44 34.1067 45.0667 32.32 44.32C30.56 43.5733 29.0133 42.5467 27.68 41.24C26.3467 39.9067 25.3067 38.36 24.56 36.6C23.84 34.8133 23.48 32.9067 23.48 30.88C23.48 28.8533 23.84 26.9733 24.56 25.24C25.3067 23.48 26.3333 21.9467 27.64 20.64C28.9733 19.3067 30.52 18.28 32.28 17.56C34.04 16.8133 35.9467 16.44 38 16.44C40.0533 16.44 41.96 16.8133 43.72 17.56C45.48 18.28 47.0267 19.3067 48.36 20.64C49.6933 21.9467 50.72 23.48 51.44 25.24C52.1867 27 52.56 28.8933 52.56 30.92C52.56 32.9467 52.1867 34.84 51.44 36.6C50.72 38.36 49.6933 39.9067 48.36 41.24C47.0533 42.5467 45.52 43.5733 43.76 44.32C42 45.0667 40.1067 45.44 38.08 45.44ZM38 40.36C39.7867 40.36 41.3467 39.96 42.68 39.16C44.04 38.36 45.0933 37.2533 45.84 35.84C46.6133 34.4267 47 32.7733 47 30.88C47 29.4933 46.7733 28.2267 46.32 27.08C45.8933 25.9333 45.28 24.9467 44.48 24.12C43.68 23.2667 42.7333 22.6133 41.64 22.16C40.5467 21.7067 39.3333 21.48 38 21.48C36.24 21.48 34.68 21.88 33.32 22.68C31.9867 23.4533 30.9333 24.5467 30.16 25.96C29.4133 27.3733 29.04 29.0133 29.04 30.88C29.04 32.2933 29.2533 33.5867 29.68 34.76C30.1333 35.9333 30.7467 36.9333 31.52 37.76C32.32 38.5867 33.2667 39.2267 34.36 39.68C35.48 40.1333 36.6933 40.36 38 40.36ZM50.76 47.08L37.88 34.2L41.16 30.88L54.08 43.8L50.76 47.08Z" fill="#023047"/>
<path d="M65.3725 45.4C63.6658 45.4 62.1458 45.04 60.8125 44.32C59.5058 43.6 58.4792 42.6 57.7325 41.32C56.9858 40.04 56.6125 38.56 56.6125 36.88V25.68H61.8925V36.76C61.8925 37.56 62.0258 38.2533 62.2925 38.84C62.5592 39.4 62.9592 39.8267 63.4925 40.12C64.0258 40.4133 64.6525 40.56 65.3725 40.56C66.4658 40.56 67.3192 40.2267 67.9325 39.56C68.5458 38.8933 68.8525 37.96 68.8525 36.76V25.68H74.0925V36.88C74.0925 38.5867 73.7192 40.08 72.9725 41.36C72.2525 42.64 71.2258 43.64 69.8925 44.36C68.5858 45.0533 67.0792 45.4 65.3725 45.4Z" fill="#023047"/>
<path d="M78.2653 45V25.68H83.5453V45H78.2653ZM80.9053 22.56C80.052 22.56 79.3453 22.28 78.7853 21.72C78.2253 21.1333 77.9453 20.4133 77.9453 19.56C77.9453 18.7333 78.2253 18.0267 78.7853 17.44C79.3453 16.8533 80.052 16.56 80.9053 16.56C81.7853 16.56 82.492 16.8533 83.0253 17.44C83.5853 18.0267 83.8653 18.7333 83.8653 19.56C83.8653 20.4133 83.5853 21.1333 83.0253 21.72C82.492 22.28 81.7853 22.56 80.9053 22.56Z" fill="#023047"/>
<path d="M97.3072 45.4C95.3339 45.4 93.5605 44.96 91.9872 44.08C90.4139 43.2 89.1739 42 88.2672 40.48C87.3605 38.96 86.9072 37.2533 86.9072 35.36C86.9072 33.44 87.3605 31.72 88.2672 30.2C89.1739 28.68 90.4139 27.48 91.9872 26.6C93.5872 25.6933 95.3605 25.24 97.3072 25.24C98.8272 25.24 100.227 25.52 101.507 26.08C102.787 26.64 103.894 27.44 104.827 28.48L101.467 31.88C100.961 31.32 100.347 30.8933 99.6272 30.6C98.9339 30.3067 98.1605 30.16 97.3072 30.16C96.3472 30.16 95.4805 30.3867 94.7072 30.84C93.9605 31.2667 93.3605 31.8667 92.9072 32.64C92.4805 33.3867 92.2672 34.28 92.2672 35.32C92.2672 36.3333 92.4805 37.24 92.9072 38.04C93.3605 38.8133 93.9605 39.4267 94.7072 39.88C95.4805 40.3067 96.3472 40.52 97.3072 40.52C98.1872 40.52 98.9739 40.3733 99.6672 40.08C100.387 39.76 101.001 39.3067 101.507 38.72L104.907 42.12C103.921 43.1867 102.787 44 101.507 44.56C100.227 45.12 98.8272 45.4 97.3072 45.4Z" fill="#023047"/>
<path d="M120.195 45L112.715 35.04L120.155 25.68H126.195L117.475 36.24L117.675 33.68L126.595 45H120.195ZM107.875 45V16.08H113.115V45H107.875Z" fill="#023047"/>
<path d="M138.215 45V17.48H141.135V45H138.215ZM140.135 45V42.32H155.295V45H140.135Z" fill="#023047"/>
<path d="M166.867 45.4C165.081 45.4 163.481 44.9733 162.067 44.12C160.654 43.24 159.534 42.0667 158.707 40.6C157.907 39.1333 157.507 37.48 157.507 35.64C157.507 33.7733 157.907 32.1067 158.707 30.64C159.534 29.1467 160.654 27.9733 162.067 27.12C163.481 26.24 165.067 25.8 166.827 25.8C168.267 25.8 169.547 26.0933 170.667 26.68C171.814 27.24 172.734 28.04 173.427 29.08C174.147 30.0933 174.587 31.28 174.747 32.64V38.52C174.587 39.88 174.147 41.08 173.427 42.12C172.734 43.16 171.814 43.9733 170.667 44.56C169.547 45.12 168.281 45.4 166.867 45.4ZM167.307 42.72C169.254 42.72 170.814 42.0667 171.987 40.76C173.187 39.4533 173.787 37.7333 173.787 35.6C173.787 34.1867 173.507 32.9467 172.947 31.88C172.414 30.7867 171.654 29.9467 170.667 29.36C169.707 28.7467 168.574 28.44 167.267 28.44C165.934 28.44 164.747 28.7467 163.707 29.36C162.694 29.9733 161.881 30.8267 161.267 31.92C160.681 32.9867 160.387 34.2133 160.387 35.6C160.387 36.9867 160.681 38.2133 161.267 39.28C161.881 40.3467 162.707 41.1867 163.747 41.8C164.787 42.4133 165.974 42.72 167.307 42.72ZM173.627 45V39.96L174.187 35.32L173.627 30.8V26.2H176.427V45H173.627Z" fill="#023047"/>
<path d="M191.826 45.4C190.386 45.4 189.092 45.1067 187.946 44.52C186.799 43.9333 185.852 43.1333 185.106 42.12C184.386 41.08 183.946 39.88 183.786 38.52V32.64C183.946 31.2533 184.399 30.0533 185.146 29.04C185.892 28 186.839 27.2 187.986 26.64C189.159 26.08 190.439 25.8 191.826 25.8C193.559 25.8 195.119 26.24 196.506 27.12C197.892 27.9733 198.986 29.1467 199.786 30.64C200.612 32.1067 201.026 33.7733 201.026 35.64C201.026 37.48 200.626 39.1333 199.826 40.6C199.026 42.0667 197.919 43.24 196.506 44.12C195.119 44.9733 193.559 45.4 191.826 45.4ZM191.346 42.72C192.679 42.72 193.852 42.4267 194.866 41.84C195.879 41.2267 196.666 40.3867 197.226 39.32C197.812 38.2267 198.106 36.9867 198.106 35.6C198.106 34.1867 197.812 32.9467 197.226 31.88C196.666 30.8133 195.879 29.9733 194.866 29.36C193.852 28.7467 192.692 28.44 191.386 28.44C190.079 28.44 188.919 28.7467 187.906 29.36C186.919 29.9733 186.146 30.8133 185.586 31.88C185.026 32.9467 184.746 34.1867 184.746 35.6C184.746 36.9867 185.026 38.2267 185.586 39.32C186.146 40.3867 186.919 41.2267 187.906 41.84C188.892 42.4267 190.039 42.72 191.346 42.72ZM182.106 45V16.68H184.906V30.8L184.346 35.32L184.906 39.96V45H182.106Z" fill="#023047"/>
<path d="M211.264 45.4C210.251 45.4 209.277 45.2667 208.344 45C207.411 44.7067 206.557 44.3067 205.784 43.8C205.037 43.2933 204.384 42.6933 203.824 42L205.624 40.16C206.371 41.0667 207.211 41.7467 208.144 42.2C209.104 42.6267 210.171 42.84 211.344 42.84C212.597 42.84 213.571 42.6 214.264 42.12C214.984 41.64 215.344 40.9733 215.344 40.12C215.344 39.32 215.091 38.6933 214.584 38.24C214.077 37.7867 213.424 37.4267 212.624 37.16C211.851 36.8933 211.024 36.64 210.144 36.4C209.264 36.1333 208.424 35.8133 207.624 35.44C206.824 35.04 206.171 34.4933 205.664 33.8C205.184 33.1067 204.944 32.2 204.944 31.08C204.944 30.0133 205.197 29.0933 205.704 28.32C206.237 27.52 206.984 26.9067 207.944 26.48C208.931 26.0267 210.091 25.8 211.424 25.8C212.837 25.8 214.117 26.0533 215.264 26.56C216.411 27.0667 217.331 27.8133 218.024 28.8L216.224 30.6C215.664 29.88 214.957 29.3333 214.104 28.96C213.277 28.56 212.344 28.36 211.304 28.36C210.104 28.36 209.184 28.6 208.544 29.08C207.931 29.5333 207.624 30.1333 207.624 30.88C207.624 31.6 207.877 32.1733 208.384 32.6C208.891 33 209.531 33.3333 210.304 33.6C211.104 33.84 211.944 34.0933 212.824 34.36C213.704 34.6 214.544 34.9333 215.344 35.36C216.144 35.76 216.784 36.32 217.264 37.04C217.771 37.7333 218.024 38.68 218.024 39.88C218.024 41.56 217.411 42.9067 216.184 43.92C214.984 44.9067 213.344 45.4 211.264 45.4Z" fill="#023047"/>
<circle cx="19.4352" cy="25.4352" r="2.5" transform="rotate(-31.3197 19.4352 25.4352)" fill="#8ECAE6"/>
<circle cx="23.4352" cy="18.4352" r="2.5" transform="rotate(-31.3197 23.4352 18.4352)" fill="#219EBC"/>
<circle cx="29.1374" cy="13.6393" r="2.5" transform="rotate(-31.3197 29.1374 13.6393)" fill="#FFB703"/>
<circle cx="36.4352" cy="11.4352" r="2.5" transform="rotate(-31.3197 36.4352 11.4352)" fill="#FB8500"/>
</svg>
