<svg width="240" height="60" viewBox="0 0 240 60" fill="none" xmlns="http://www.w3.org/2000/svg">
<path d="M24.08 47.44C22.0267 47.44 20.1067 47.0667 18.32 46.32C16.56 45.5733 15.0133 44.5467 13.68 43.24C12.3467 41.9067 11.3067 40.36 10.56 38.6C9.84 36.8133 9.48 34.9067 9.48 32.88C9.48 30.8533 9.84 28.9733 10.56 27.24C11.3067 25.48 12.3333 23.9467 13.64 22.64C14.9733 21.3067 16.52 20.28 18.28 19.56C20.04 18.8133 21.9467 18.44 24 18.44C26.0533 18.44 27.96 18.8133 29.72 19.56C31.48 20.28 33.0267 21.3067 34.36 22.64C35.6933 23.9467 36.72 25.48 37.44 27.24C38.1867 29 38.56 30.8933 38.56 32.92C38.56 34.9467 38.1867 36.84 37.44 38.6C36.72 40.36 35.6933 41.9067 34.36 43.24C33.0533 44.5467 31.52 45.5733 29.76 46.32C28 47.0667 26.1067 47.44 24.08 47.44ZM24 42.36C25.7867 42.36 27.3467 41.96 28.68 41.16C30.04 40.36 31.0933 39.2533 31.84 37.84C32.6133 36.4267 33 34.7733 33 32.88C33 31.4933 32.7733 30.2267 32.32 29.08C31.8933 27.9333 31.28 26.9467 30.48 26.12C29.68 25.2667 28.7333 24.6133 27.64 24.16C26.5467 23.7067 25.3333 23.48 24 23.48C22.24 23.48 20.68 23.88 19.32 24.68C17.9867 25.4533 16.9333 26.5467 16.16 27.96C15.4133 29.3733 15.04 31.0133 15.04 32.88C15.04 34.2933 15.2533 35.5867 15.68 36.76C16.1333 37.9333 16.7467 38.9333 17.52 39.76C18.32 40.5867 19.2667 41.2267 20.36 41.68C21.48 42.1333 22.6933 42.36 24 42.36ZM36.76 49.08L23.88 36.2L27.16 32.88L40.08 45.8L36.76 49.08Z" fill="#023047"/>
<path d="M51.3725 47.4C49.6658 47.4 48.1458 47.04 46.8125 46.32C45.5058 45.6 44.4792 44.6 43.7325 43.32C42.9858 42.04 42.6125 40.56 42.6125 38.88V27.68H47.8925V38.76C47.8925 39.56 48.0258 40.2533 48.2925 40.84C48.5592 41.4 48.9592 41.8267 49.4925 42.12C50.0258 42.4133 50.6525 42.56 51.3725 42.56C52.4658 42.56 53.3192 42.2267 53.9325 41.56C54.5458 40.8933 54.8525 39.96 54.8525 38.76V27.68H60.0925V38.88C60.0925 40.5867 59.7192 42.08 58.9725 43.36C58.2525 44.64 57.2258 45.64 55.8925 46.36C54.5858 47.0533 53.0792 47.4 51.3725 47.4Z" fill="#023047"/>
<path d="M64.2653 47V27.68H69.5453V47H64.2653ZM66.9053 24.56C66.052 24.56 65.3453 24.28 64.7853 23.72C64.2253 23.1333 63.9453 22.4133 63.9453 21.56C63.9453 20.7333 64.2253 20.0267 64.7853 19.44C65.3453 18.8533 66.052 18.56 66.9053 18.56C67.7853 18.56 68.492 18.8533 69.0253 19.44C69.5853 20.0267 69.8653 20.7333 69.8653 21.56C69.8653 22.4133 69.5853 23.1333 69.0253 23.72C68.492 24.28 67.7853 24.56 66.9053 24.56Z" fill="#023047"/>
<path d="M83.3072 47.4C81.3339 47.4 79.5605 46.96 77.9872 46.08C76.4139 45.2 75.1739 44 74.2672 42.48C73.3605 40.96 72.9072 39.2533 72.9072 37.36C72.9072 35.44 73.3605 33.72 74.2672 32.2C75.1739 30.68 76.4139 29.48 77.9872 28.6C79.5872 27.6933 81.3605 27.24 83.3072 27.24C84.8272 27.24 86.2272 27.52 87.5072 28.08C88.7872 28.64 89.8939 29.44 90.8272 30.48L87.4672 33.88C86.9605 33.32 86.3472 32.8933 85.6272 32.6C84.9339 32.3067 84.1605 32.16 83.3072 32.16C82.3472 32.16 81.4805 32.3867 80.7072 32.84C79.9605 33.2667 79.3605 33.8667 78.9072 34.64C78.4805 35.3867 78.2672 36.28 78.2672 37.32C78.2672 38.3333 78.4805 39.24 78.9072 40.04C79.3605 40.8133 79.9605 41.4267 80.7072 41.88C81.4805 42.3067 82.3472 42.52 83.3072 42.52C84.1872 42.52 84.9739 42.3733 85.6672 42.08C86.3872 41.76 87.0005 41.3067 87.5072 40.72L90.9072 44.12C89.9205 45.1867 88.7872 46 87.5072 46.56C86.2272 47.12 84.8272 47.4 83.3072 47.4Z" fill="#023047"/>
<path d="M106.195 47L98.7147 37.04L106.155 27.68H112.195L103.475 38.24L103.675 35.68L112.595 47H106.195ZM93.8747 47V18.08H99.1147V47H93.8747Z" fill="#023047"/>
<path d="M124.215 47V19.48H127.135V47H124.215ZM126.135 47V44.32H141.295V47H126.135Z" fill="#023047"/>
<path d="M152.867 47.4C151.081 47.4 149.481 46.9733 148.067 46.12C146.654 45.24 145.534 44.0667 144.707 42.6C143.907 41.1333 143.507 39.48 143.507 37.64C143.507 35.7733 143.907 34.1067 144.707 32.64C145.534 31.1467 146.654 29.9733 148.067 29.12C149.481 28.24 151.067 27.8 152.827 27.8C154.267 27.8 155.547 28.0933 156.667 28.68C157.814 29.24 158.734 30.04 159.427 31.08C160.147 32.0933 160.587 33.28 160.747 34.64V40.52C160.587 41.88 160.147 43.08 159.427 44.12C158.734 45.16 157.814 45.9733 156.667 46.56C155.547 47.12 154.281 47.4 152.867 47.4ZM153.307 44.72C155.254 44.72 156.814 44.0667 157.987 42.76C159.187 41.4533 159.787 39.7333 159.787 37.6C159.787 36.1867 159.507 34.9467 158.947 33.88C158.414 32.7867 157.654 31.9467 156.667 31.36C155.707 30.7467 154.574 30.44 153.267 30.44C151.934 30.44 150.747 30.7467 149.707 31.36C148.694 31.9733 147.881 32.8267 147.267 33.92C146.681 34.9867 146.387 36.2133 146.387 37.6C146.387 38.9867 146.681 40.2133 147.267 41.28C147.881 42.3467 148.707 43.1867 149.747 43.8C150.787 44.4133 151.974 44.72 153.307 44.72ZM159.627 47V41.96L160.187 37.32L159.627 32.8V28.2H162.427V47H159.627Z" fill="#023047"/>
<path d="M177.826 47.4C176.386 47.4 175.092 47.1067 173.946 46.52C172.799 45.9333 171.852 45.1333 171.106 44.12C170.386 43.08 169.946 41.88 169.786 40.52V34.64C169.946 33.2533 170.399 32.0533 171.146 31.04C171.892 30 172.839 29.2 173.986 28.64C175.159 28.08 176.439 27.8 177.826 27.8C179.559 27.8 181.119 28.24 182.506 29.12C183.892 29.9733 184.986 31.1467 185.786 32.64C186.612 34.1067 187.026 35.7733 187.026 37.64C187.026 39.48 186.626 41.1333 185.826 42.6C185.026 44.0667 183.919 45.24 182.506 46.12C181.119 46.9733 179.559 47.4 177.826 47.4ZM177.346 44.72C178.679 44.72 179.852 44.4267 180.866 43.84C181.879 43.2267 182.666 42.3867 183.226 41.32C183.812 40.2267 184.106 38.9867 184.106 37.6C184.106 36.1867 183.812 34.9467 183.226 33.88C182.666 32.8133 181.879 31.9733 180.866 31.36C179.852 30.7467 178.692 30.44 177.386 30.44C176.079 30.44 174.919 30.7467 173.906 31.36C172.919 31.9733 172.146 32.8133 171.586 33.88C171.026 34.9467 170.746 36.1867 170.746 37.6C170.746 38.9867 171.026 40.2267 171.586 41.32C172.146 42.3867 172.919 43.2267 173.906 43.84C174.892 44.4267 176.039 44.72 177.346 44.72ZM168.106 47V18.68H170.906V32.8L170.346 37.32L170.906 41.96V47H168.106Z" fill="#023047"/>
<path d="M197.264 47.4C196.251 47.4 195.277 47.2667 194.344 47C193.411 46.7067 192.557 46.3067 191.784 45.8C191.037 45.2933 190.384 44.6933 189.824 44L191.624 42.16C192.371 43.0667 193.211 43.7467 194.144 44.2C195.104 44.6267 196.171 44.84 197.344 44.84C198.597 44.84 199.571 44.6 200.264 44.12C200.984 43.64 201.344 42.9733 201.344 42.12C201.344 41.32 201.091 40.6933 200.584 40.24C200.077 39.7867 199.424 39.4267 198.624 39.16C197.851 38.8933 197.024 38.64 196.144 38.4C195.264 38.1333 194.424 37.8133 193.624 37.44C192.824 37.04 192.171 36.4933 191.664 35.8C191.184 35.1067 190.944 34.2 190.944 33.08C190.944 32.0133 191.197 31.0933 191.704 30.32C192.237 29.52 192.984 28.9067 193.944 28.48C194.931 28.0267 196.091 27.8 197.424 27.8C198.837 27.8 200.117 28.0533 201.264 28.56C202.411 29.0667 203.331 29.8133 204.024 30.8L202.224 32.6C201.664 31.88 200.957 31.3333 200.104 30.96C199.277 30.56 198.344 30.36 197.304 30.36C196.104 30.36 195.184 30.6 194.544 31.08C193.931 31.5333 193.624 32.1333 193.624 32.88C193.624 33.6 193.877 34.1733 194.384 34.6C194.891 35 195.531 35.3333 196.304 35.6C197.104 35.84 197.944 36.0933 198.824 36.36C199.704 36.6 200.544 36.9333 201.344 37.36C202.144 37.76 202.784 38.32 203.264 39.04C203.771 39.7333 204.024 40.68 204.024 41.88C204.024 43.56 203.411 44.9067 202.184 45.92C200.984 46.9067 199.344 47.4 197.264 47.4Z" fill="#023047"/>
<circle cx="5.43523" cy="27.4352" r="2.5" transform="rotate(-31.3197 5.43523 27.4352)" fill="#8ECAE6"/>
<circle cx="9.43523" cy="20.4352" r="2.5" transform="rotate(-31.3197 9.43523 20.4352)" fill="#219EBC"/>
<circle cx="15.1374" cy="15.6393" r="2.5" transform="rotate(-31.3197 15.1374 15.6393)" fill="#FFB703"/>
<circle cx="22.4352" cy="13.4352" r="2.5" transform="rotate(-31.3197 22.4352 13.4352)" fill="#FB8500"/>
</svg>
