<svg width="200" height="200" viewBox="0 0 200 200" fill="none" xmlns="http://www.w3.org/2000/svg">
<rect y="5" width="10" height="10" fill="#FFB703"/>
<rect x="22" y="5" width="10" height="10" fill="#FFB703"/>
<rect x="43" y="5" width="10" height="10" fill="#FFB703"/>
<rect x="64" y="5" width="10" height="10" fill="#FFB703"/>
<rect x="85" y="5" width="10" height="10" fill="#FFB703"/>
<rect x="106" y="5" width="10" height="10" fill="#FFB703"/>
<rect x="127" y="5" width="10" height="10" fill="#FFB703"/>
<rect x="148" y="5" width="10" height="10" fill="#FFB703"/>
<rect x="169" y="5" width="10" height="10" fill="#FFB703"/>
<rect x="190" y="5" width="10" height="10" fill="#FFB703"/>
<rect y="25" width="10" height="10" fill="#FFB703"/>
<rect x="22" y="25" width="10" height="10" fill="#FFB703"/>
<rect x="43" y="25" width="10" height="10" fill="#FFB703"/>
<rect x="64" y="25" width="10" height="10" fill="#FFB703"/>
<rect x="85" y="25" width="10" height="10" fill="#FFB703"/>
<rect x="106" y="25" width="10" height="10" fill="#FFB703"/>
<rect x="127" y="25" width="10" height="10" fill="#FFB703"/>
<rect x="148" y="25" width="10" height="10" fill="#FFB703"/>
<rect x="169" y="25" width="10" height="10" fill="#FFB703"/>
<rect x="190" y="25" width="10" height="10" fill="#FFB703"/>
<rect y="45" width="10" height="10" fill="#FFB703"/>
<rect x="22" y="45" width="10" height="10" fill="#FFB703"/>
<rect x="43" y="45" width="10" height="10" fill="#FFB703"/>
<rect x="64" y="45" width="10" height="10" fill="#FFB703"/>
<rect x="85" y="45" width="10" height="10" fill="#FFB703"/>
<rect x="106" y="45" width="10" height="10" fill="#FFB703"/>
<rect x="127" y="45" width="10" height="10" fill="#FFB703"/>
<rect x="148" y="45" width="10" height="10" fill="#FFB703"/>
<rect x="169" y="45" width="10" height="10" fill="#FFB703"/>
<rect x="190" y="45" width="10" height="10" fill="#FFB703"/>
<rect y="65" width="10" height="10" fill="#FFB703"/>
<rect x="22" y="65" width="10" height="10" fill="#FFB703"/>
<rect x="43" y="65" width="10" height="10" fill="#FFB703"/>
<rect x="64" y="65" width="10" height="10" fill="#FFB703"/>
<rect x="85" y="65" width="10" height="10" fill="#FFB703"/>
<rect x="106" y="65" width="10" height="10" fill="#FFB703"/>
<rect x="127" y="65" width="10" height="10" fill="#FFB703"/>
<rect x="148" y="65" width="10" height="10" fill="#FFB703"/>
<rect x="169" y="65" width="10" height="10" fill="#FFB703"/>
<rect x="190" y="65" width="10" height="10" fill="#FFB703"/>
<rect y="85" width="10" height="10" fill="#FFB703"/>
<rect x="22" y="85" width="10" height="10" fill="#FFB703"/>
<rect x="43" y="85" width="10" height="10" fill="#FFB703"/>
<rect x="64" y="85" width="10" height="10" fill="#FFB703"/>
<rect x="85" y="85" width="10" height="10" fill="#FFB703"/>
<rect x="106" y="85" width="10" height="10" fill="#FFB703"/>
<rect x="127" y="85" width="10" height="10" fill="#FFB703"/>
<rect x="148" y="85" width="10" height="10" fill="#FFB703"/>
<rect x="169" y="85" width="10" height="10" fill="#FFB703"/>
<rect x="190" y="85" width="10" height="10" fill="#FFB703"/>
<rect y="105" width="10" height="10" fill="#FFB703"/>
<rect x="22" y="105" width="10" height="10" fill="#FFB703"/>
<rect x="43" y="105" width="10" height="10" fill="#FFB703"/>
<rect x="64" y="105" width="10" height="10" fill="#FFB703"/>
<rect x="85" y="105" width="10" height="10" fill="#FFB703"/>
<rect x="106" y="105" width="10" height="10" fill="#FFB703"/>
<rect x="127" y="105" width="10" height="10" fill="#FFB703"/>
<rect x="148" y="105" width="10" height="10" fill="#FFB703"/>
<rect x="169" y="105" width="10" height="10" fill="#FFB703"/>
<rect x="190" y="105" width="10" height="10" fill="#FFB703"/>
<rect y="125" width="10" height="10" fill="#FFB703"/>
<rect x="22" y="125" width="10" height="10" fill="#FFB703"/>
<rect x="43" y="125" width="10" height="10" fill="#FFB703"/>
<rect x="64" y="125" width="10" height="10" fill="#FFB703"/>
<rect x="85" y="125" width="10" height="10" fill="#FFB703"/>
<rect x="106" y="125" width="10" height="10" fill="#FFB703"/>
<rect x="127" y="125" width="10" height="10" fill="#FFB703"/>
<rect x="148" y="125" width="10" height="10" fill="#FFB703"/>
<rect x="169" y="125" width="10" height="10" fill="#FFB703"/>
<rect x="190" y="125" width="10" height="10" fill="#FFB703"/>
<rect y="145" width="10" height="10" fill="#FFB703"/>
<rect x="22" y="145" width="10" height="10" fill="#FFB703"/>
<rect x="43" y="145" width="10" height="10" fill="#FFB703"/>
<rect x="64" y="145" width="10" height="10" fill="#FFB703"/>
<rect x="85" y="145" width="10" height="10" fill="#FFB703"/>
<rect x="106" y="145" width="10" height="10" fill="#FFB703"/>
<rect x="127" y="145" width="10" height="10" fill="#FFB703"/>
<rect x="148" y="145" width="10" height="10" fill="#FFB703"/>
<rect x="169" y="145" width="10" height="10" fill="#FFB703"/>
<rect x="190" y="145" width="10" height="10" fill="#FFB703"/>
<rect y="165" width="10" height="10" fill="#FFB703"/>
<rect x="22" y="165" width="10" height="10" fill="#FFB703"/>
<rect x="43" y="165" width="10" height="10" fill="#FFB703"/>
<rect x="64" y="165" width="10" height="10" fill="#FFB703"/>
<rect x="85" y="165" width="10" height="10" fill="#FFB703"/>
<rect x="106" y="165" width="10" height="10" fill="#FFB703"/>
<rect x="127" y="165" width="10" height="10" fill="#FFB703"/>
<rect x="148" y="165" width="10" height="10" fill="#FFB703"/>
<rect x="169" y="165" width="10" height="10" fill="#FFB703"/>
<rect x="190" y="165" width="10" height="10" fill="#FFB703"/>
<rect y="185" width="10" height="10" fill="#FFB703"/>
<rect x="22" y="185" width="10" height="10" fill="#FFB703"/>
<rect x="43" y="185" width="10" height="10" fill="#FFB703"/>
<rect x="64" y="185" width="10" height="10" fill="#FFB703"/>
<rect x="85" y="185" width="10" height="10" fill="#FFB703"/>
<rect x="106" y="185" width="10" height="10" fill="#FFB703"/>
<rect x="127" y="185" width="10" height="10" fill="#FFB703"/>
<rect x="148" y="185" width="10" height="10" fill="#FFB703"/>
<rect x="169" y="185" width="10" height="10" fill="#FFB703"/>
<rect x="190" y="185" width="10" height="10" fill="#FFB703"/>
</svg>
