<svg width="179" height="180" viewBox="0 0 179 180" fill="none" xmlns="http://www.w3.org/2000/svg">
<rect y="5" width="10" height="10" fill="#FFB703"/>
<rect x="43" y="5" width="10" height="10" fill="#FFB703"/>
<rect x="85" y="5" width="10" height="10" fill="#FFB703"/>
<rect x="127" y="5" width="10" height="10" fill="#FFB703"/>
<rect x="169" y="5" width="10" height="10" fill="#FFB703"/>
<rect y="45" width="10" height="10" fill="#FFB703"/>
<rect x="43" y="45" width="10" height="10" fill="#FFB703"/>
<rect x="85" y="45" width="10" height="10" fill="#FFB703"/>
<rect x="127" y="45" width="10" height="10" fill="#FFB703"/>
<rect x="169" y="45" width="10" height="10" fill="#FFB703"/>
<rect y="85" width="10" height="10" fill="#FFB703"/>
<rect x="43" y="85" width="10" height="10" fill="#FFB703"/>
<rect x="85" y="85" width="10" height="10" fill="#FFB703"/>
<rect x="127" y="85" width="10" height="10" fill="#FFB703"/>
<rect x="169" y="85" width="10" height="10" fill="#FFB703"/>
<rect y="125" width="10" height="10" fill="#FFB703"/>
<rect x="43" y="125" width="10" height="10" fill="#FFB703"/>
<rect x="85" y="125" width="10" height="10" fill="#FFB703"/>
<rect x="127" y="125" width="10" height="10" fill="#FFB703"/>
<rect x="169" y="125" width="10" height="10" fill="#FFB703"/>
<rect y="165" width="10" height="10" fill="#FFB703"/>
<rect x="43" y="165" width="10" height="10" fill="#FFB703"/>
<rect x="85" y="165" width="10" height="10" fill="#FFB703"/>
<rect x="127" y="165" width="10" height="10" fill="#FFB703"/>
<rect x="169" y="165" width="10" height="10" fill="#FFB703"/>
</svg>
