<svg width="122" height="100" viewBox="0 0 122 100" fill="none" xmlns="http://www.w3.org/2000/svg">
<path d="M61.1033 99.4921C85.737 99.4921 105.707 95.7608 105.707 91.1579C105.707 86.5551 85.737 82.8237 61.1033 82.8237C36.4696 82.8237 16.5 86.5551 16.5 91.1579C16.5 95.7608 36.4696 99.4921 61.1033 99.4921Z" fill="#FBFBFF"/>
<path fill-rule="evenodd" clip-rule="evenodd" d="M96.7855 66.6738L81.0454 47.3021C80.2902 46.3902 79.1862 45.8383 78.0237 45.8383H44.1816C43.0198 45.8383 41.9158 46.3902 41.1606 47.3021L25.4211 66.6738V76.7942H96.7862V66.6738H96.7855Z" fill="#262626" fill-opacity="0.2"/>
<path fill-rule="evenodd" clip-rule="evenodd" d="M38.7566 20.8356H83.4493C84.1473 20.8356 84.8166 21.1128 85.3102 21.6063C85.8037 22.0999 86.0809 22.7692 86.0809 23.4671V84.8777C86.0809 85.5756 85.8037 86.2449 85.3102 86.7385C84.8166 87.232 84.1473 87.5092 83.4493 87.5092H38.7566C38.0586 87.5092 37.3893 87.232 36.8958 86.7385C36.4023 86.2449 36.125 85.5756 36.125 84.8777V23.4671C36.125 22.7692 36.4023 22.0999 36.8958 21.6063C37.3893 21.1128 38.0586 20.8356 38.7566 20.8356V20.8356Z" fill="#FBFBFF"/>
<path fill-rule="evenodd" clip-rule="evenodd" d="M44.5777 27.3835H77.6283C77.9773 27.3835 78.312 27.5222 78.5587 27.7689C78.8055 28.0157 78.9441 28.3504 78.9441 28.6993V45.1184C78.9441 45.4674 78.8055 45.8021 78.5587 46.0488C78.312 46.2956 77.9773 46.4342 77.6283 46.4342H44.5777C44.2287 46.4342 43.894 46.2956 43.6472 46.0488C43.4005 45.8021 43.2619 45.4674 43.2619 45.1184V28.6993C43.2619 28.3504 43.4005 28.0157 43.6472 27.7689C43.894 27.5222 44.2287 27.3835 44.5777 27.3835ZM44.75 53.577H77.4559C77.8506 53.577 78.2291 53.7338 78.5082 54.0128C78.7873 54.2919 78.9441 54.6704 78.9441 55.0651C78.9441 55.4598 78.7873 55.8383 78.5082 56.1174C78.2291 56.3965 77.8506 56.5533 77.4559 56.5533H44.75C44.3553 56.5533 43.9768 56.3965 43.6977 56.1174C43.4186 55.8383 43.2619 55.4598 43.2619 55.0651C43.2619 54.6704 43.4186 54.2919 43.6977 54.0128C43.9768 53.7338 44.3553 53.577 44.75 53.577ZM44.75 61.3158H77.4559C77.8507 61.3158 78.2293 61.4726 78.5085 61.7518C78.7876 62.0309 78.9444 62.4095 78.9444 62.8043C78.9444 63.199 78.7876 63.5776 78.5085 63.8568C78.2293 64.1359 77.8507 64.2928 77.4559 64.2928H44.75C44.3552 64.2928 43.9766 64.1359 43.6975 63.8568C43.4184 63.5776 43.2615 63.199 43.2615 62.8043C43.2615 62.4095 43.4184 62.0309 43.6975 61.7518C43.9766 61.4726 44.3552 61.3158 44.75 61.3158ZM96.6402 89.9355C96.1303 91.9559 94.3395 93.4618 92.2092 93.4618H29.9967C27.8665 93.4618 26.0757 91.9553 25.5665 89.9355C25.4693 89.5505 25.4203 89.1549 25.4204 88.7579V66.6743H42.7349C44.6474 66.6743 46.1888 68.2849 46.1888 70.2401V70.2664C46.1888 72.221 47.748 73.7993 49.6605 73.7993H72.5454C74.4579 73.7993 76.0171 72.2066 76.0171 70.2513V70.2434C76.0171 68.2881 77.5586 66.6737 79.4711 66.6737H96.7855V88.7585C96.7855 89.1645 96.7349 89.5585 96.6402 89.9355Z" fill="#262626" fill-opacity="0.2"/>
<path fill-rule="evenodd" clip-rule="evenodd" d="M98.8165 21.9026L94.323 23.6461C94.2076 23.6909 94.0818 23.7023 93.9602 23.6789C93.8386 23.6555 93.7261 23.5982 93.6356 23.5137C93.545 23.4292 93.4802 23.3208 93.4486 23.2011C93.4169 23.0813 93.4197 22.9551 93.4566 22.8368L94.7309 18.7533C93.0276 16.8164 92.0276 14.4546 92.0276 11.9059C92.0276 5.33026 98.6842 0 106.896 0C115.106 0 121.763 5.33026 121.763 11.9059C121.763 18.4816 115.107 23.8118 106.895 23.8118C103.916 23.8118 101.143 23.1105 98.8165 21.9026Z" fill="#262626" fill-opacity="0.2"/>
<path d="M112.753 14.0559C113.788 14.0559 114.627 13.2267 114.627 12.2039C114.627 11.1811 113.788 10.3519 112.753 10.3519C111.717 10.3519 110.878 11.1811 110.878 12.2039C110.878 13.2267 111.717 14.0559 112.753 14.0559Z" fill="white"/>
<path fill-rule="evenodd" clip-rule="evenodd" d="M102.913 13.8243H99.1644L101.071 10.5835L102.913 13.8243ZM105.256 10.5835H108.535V13.8243H105.256V10.5835Z" fill="white"/>
</svg>
